<mxfile host="app.diagrams.net" modified="2022-05-08T06:55:30.639Z" agent="5.0 (Windows NT 10.0; WOW64) AppleWebKit/537.36 (KHTML, like Gecko) Chrome/101.0.4951.54 Safari/537.36" etag="hiHrHM2dq0XHcUmoww76" version="18.0.2" type="github">
  <diagram id="IVtER8iOa4Ks5zT8WiCw" name="HomeNetwork">
    <mxGraphModel dx="399" dy="419" grid="1" gridSize="10" guides="1" tooltips="1" connect="1" arrows="1" fold="1" page="1" pageScale="1" pageWidth="827" pageHeight="1169" math="0" shadow="0">
      <root>
        <mxCell id="0" />
        <mxCell id="1" parent="0" />
        <mxCell id="F0cyMqDmB0AHEjMqEv3i-4" value="" style="group" vertex="1" connectable="0" parent="1">
          <mxGeometry x="30" y="20" width="160" height="80" as="geometry" />
        </mxCell>
        <mxCell id="F0cyMqDmB0AHEjMqEv3i-3" value="&lt;div style=&quot;text-align: justify;&quot;&gt;&lt;span style=&quot;background-color: initial;&quot;&gt;NTTONU&lt;/span&gt;&lt;/div&gt;&lt;div style=&quot;text-align: justify;&quot;&gt;&lt;span style=&quot;background-color: initial;&quot;&gt;10G-PON&lt;/span&gt;&lt;/div&gt;" style="rounded=1;whiteSpace=wrap;html=1;align=right;" vertex="1" parent="F0cyMqDmB0AHEjMqEv3i-4">
          <mxGeometry width="160" height="80" as="geometry" />
        </mxCell>
        <mxCell id="F0cyMqDmB0AHEjMqEv3i-2" value="" style="image;html=1;image=img/lib/clip_art/networking/Router_Icon_128x128.png" vertex="1" parent="F0cyMqDmB0AHEjMqEv3i-4">
          <mxGeometry x="10" y="10" width="50" height="50" as="geometry" />
        </mxCell>
        <mxCell id="F0cyMqDmB0AHEjMqEv3i-5" value="" style="group" vertex="1" connectable="0" parent="1">
          <mxGeometry x="30" y="160" width="160" height="80" as="geometry" />
        </mxCell>
        <mxCell id="F0cyMqDmB0AHEjMqEv3i-6" value="&lt;div style=&quot;text-align: justify;&quot;&gt;&lt;span style=&quot;background-color: initial;&quot;&gt;NTTONU&lt;/span&gt;&lt;/div&gt;&lt;div style=&quot;text-align: justify;&quot;&gt;&lt;span style=&quot;background-color: initial;&quot;&gt;G-PON&lt;/span&gt;&lt;/div&gt;" style="rounded=1;whiteSpace=wrap;html=1;align=right;" vertex="1" parent="F0cyMqDmB0AHEjMqEv3i-5">
          <mxGeometry width="160" height="80" as="geometry" />
        </mxCell>
        <mxCell id="F0cyMqDmB0AHEjMqEv3i-7" value="" style="image;html=1;image=img/lib/clip_art/networking/Router_Icon_128x128.png" vertex="1" parent="F0cyMqDmB0AHEjMqEv3i-5">
          <mxGeometry x="10" y="10" width="50" height="50" as="geometry" />
        </mxCell>
        <mxCell id="F0cyMqDmB0AHEjMqEv3i-8" value="" style="group" vertex="1" connectable="0" parent="1">
          <mxGeometry x="250" y="90" width="160" height="70" as="geometry" />
        </mxCell>
        <mxCell id="F0cyMqDmB0AHEjMqEv3i-9" value="&lt;blockquote style=&quot;margin: 0 0 0 40px; border: none; padding: 0px;&quot;&gt;&lt;div style=&quot;&quot;&gt;&lt;span style=&quot;background-color: initial;&quot;&gt;ServerRouter&lt;/span&gt;&lt;/div&gt;&lt;div style=&quot;&quot;&gt;&lt;span style=&quot;background-color: initial;&quot;&gt;IX2310&lt;/span&gt;&lt;/div&gt;&lt;/blockquote&gt;" style="rounded=1;whiteSpace=wrap;html=1;align=center;" vertex="1" parent="F0cyMqDmB0AHEjMqEv3i-8">
          <mxGeometry width="160" height="70" as="geometry" />
        </mxCell>
        <mxCell id="F0cyMqDmB0AHEjMqEv3i-10" value="" style="image;html=1;image=img/lib/clip_art/networking/Router_Icon_128x128.png" vertex="1" parent="F0cyMqDmB0AHEjMqEv3i-8">
          <mxGeometry x="10" y="8.75" width="50" height="43.75" as="geometry" />
        </mxCell>
        <mxCell id="F0cyMqDmB0AHEjMqEv3i-18" value="" style="endArrow=none;html=1;rounded=1;strokeWidth=3;exitX=1;exitY=0.5;exitDx=0;exitDy=0;entryX=0.5;entryY=0;entryDx=0;entryDy=0;endFill=0;" edge="1" parent="1" source="F0cyMqDmB0AHEjMqEv3i-3" target="F0cyMqDmB0AHEjMqEv3i-9">
          <mxGeometry relative="1" as="geometry">
            <mxPoint x="200" y="60" as="sourcePoint" />
            <mxPoint x="360" y="60" as="targetPoint" />
            <Array as="points">
              <mxPoint x="330" y="60" />
            </Array>
          </mxGeometry>
        </mxCell>
        <mxCell id="F0cyMqDmB0AHEjMqEv3i-19" value="10G" style="edgeLabel;resizable=0;html=1;align=center;verticalAlign=middle;" connectable="0" vertex="1" parent="F0cyMqDmB0AHEjMqEv3i-18">
          <mxGeometry relative="1" as="geometry" />
        </mxCell>
        <mxCell id="F0cyMqDmB0AHEjMqEv3i-20" value="LAN" style="edgeLabel;resizable=0;html=1;align=left;verticalAlign=bottom;spacing=4;" connectable="0" vertex="1" parent="F0cyMqDmB0AHEjMqEv3i-18">
          <mxGeometry x="-1" relative="1" as="geometry" />
        </mxCell>
        <mxCell id="F0cyMqDmB0AHEjMqEv3i-21" value="GE0" style="edgeLabel;resizable=0;html=1;align=right;verticalAlign=bottom;" connectable="0" vertex="1" parent="F0cyMqDmB0AHEjMqEv3i-18">
          <mxGeometry x="1" relative="1" as="geometry">
            <mxPoint x="30" as="offset" />
          </mxGeometry>
        </mxCell>
        <mxCell id="F0cyMqDmB0AHEjMqEv3i-22" value="" style="endArrow=none;html=1;rounded=1;strokeWidth=3;exitX=1;exitY=0.5;exitDx=0;exitDy=0;entryX=0.5;entryY=1;entryDx=0;entryDy=0;endFill=0;fillColor=#ffe6cc;strokeColor=#d79b00;" edge="1" parent="1" target="F0cyMqDmB0AHEjMqEv3i-9">
          <mxGeometry relative="1" as="geometry">
            <mxPoint x="190.0000000000001" y="200" as="sourcePoint" />
            <mxPoint x="330" y="230" as="targetPoint" />
            <Array as="points">
              <mxPoint x="330" y="200" />
            </Array>
          </mxGeometry>
        </mxCell>
        <mxCell id="F0cyMqDmB0AHEjMqEv3i-23" value="1G" style="edgeLabel;resizable=0;html=1;align=center;verticalAlign=middle;" connectable="0" vertex="1" parent="F0cyMqDmB0AHEjMqEv3i-22">
          <mxGeometry relative="1" as="geometry" />
        </mxCell>
        <mxCell id="F0cyMqDmB0AHEjMqEv3i-24" value="LAN" style="edgeLabel;resizable=0;html=1;align=left;verticalAlign=bottom;spacing=4;" connectable="0" vertex="1" parent="F0cyMqDmB0AHEjMqEv3i-22">
          <mxGeometry x="-1" relative="1" as="geometry" />
        </mxCell>
        <mxCell id="F0cyMqDmB0AHEjMqEv3i-25" value="GE1" style="edgeLabel;resizable=0;html=1;align=right;verticalAlign=bottom;" connectable="0" vertex="1" parent="F0cyMqDmB0AHEjMqEv3i-22">
          <mxGeometry x="1" relative="1" as="geometry">
            <mxPoint x="30" y="20" as="offset" />
          </mxGeometry>
        </mxCell>
        <mxCell id="F0cyMqDmB0AHEjMqEv3i-26" value="GE1" style="edgeLabel;resizable=0;html=1;align=right;verticalAlign=bottom;" connectable="0" vertex="1" parent="F0cyMqDmB0AHEjMqEv3i-22">
          <mxGeometry x="1" relative="1" as="geometry">
            <mxPoint x="30" y="20" as="offset" />
          </mxGeometry>
        </mxCell>
        <mxCell id="F0cyMqDmB0AHEjMqEv3i-27" value="" style="group" vertex="1" connectable="0" parent="1">
          <mxGeometry x="30" y="340" width="160" height="80" as="geometry" />
        </mxCell>
        <mxCell id="F0cyMqDmB0AHEjMqEv3i-28" value="&lt;blockquote style=&quot;margin: 0 0 0 40px; border: none; padding: 0px;&quot;&gt;&lt;blockquote style=&quot;margin: 0 0 0 40px; border: none; padding: 0px;&quot;&gt;&lt;div style=&quot;text-align: justify;&quot;&gt;&lt;span style=&quot;background-color: initial;&quot;&gt;auひかり&lt;/span&gt;&lt;/div&gt;&lt;/blockquote&gt;&lt;blockquote style=&quot;margin: 0 0 0 40px; border: none; padding: 0px;&quot;&gt;&lt;div style=&quot;text-align: justify;&quot;&gt;&lt;span style=&quot;background-color: initial;&quot;&gt;HomeGW&lt;/span&gt;&lt;/div&gt;&lt;/blockquote&gt;&lt;/blockquote&gt;" style="rounded=1;whiteSpace=wrap;html=1;align=right;" vertex="1" parent="F0cyMqDmB0AHEjMqEv3i-27">
          <mxGeometry width="160" height="80" as="geometry" />
        </mxCell>
        <mxCell id="F0cyMqDmB0AHEjMqEv3i-29" value="" style="image;html=1;image=img/lib/clip_art/networking/Router_Icon_128x128.png" vertex="1" parent="F0cyMqDmB0AHEjMqEv3i-27">
          <mxGeometry x="10" y="10" width="50" height="50" as="geometry" />
        </mxCell>
        <mxCell id="F0cyMqDmB0AHEjMqEv3i-34" value="TL-SX1008" style="rounded=1;whiteSpace=wrap;html=1;" vertex="1" parent="1">
          <mxGeometry x="540" y="95" width="180" height="60" as="geometry" />
        </mxCell>
        <mxCell id="F0cyMqDmB0AHEjMqEv3i-35" value="" style="endArrow=none;html=1;rounded=1;strokeWidth=3;exitX=1;exitY=0.5;exitDx=0;exitDy=0;entryX=0;entryY=0.5;entryDx=0;entryDy=0;endFill=0;" edge="1" parent="1" source="F0cyMqDmB0AHEjMqEv3i-9" target="F0cyMqDmB0AHEjMqEv3i-34">
          <mxGeometry relative="1" as="geometry">
            <mxPoint x="344" y="185" as="sourcePoint" />
            <mxPoint x="484" y="215" as="targetPoint" />
            <Array as="points" />
          </mxGeometry>
        </mxCell>
        <mxCell id="F0cyMqDmB0AHEjMqEv3i-36" value="10G" style="edgeLabel;resizable=0;html=1;align=center;verticalAlign=middle;" connectable="0" vertex="1" parent="F0cyMqDmB0AHEjMqEv3i-35">
          <mxGeometry relative="1" as="geometry" />
        </mxCell>
        <mxCell id="F0cyMqDmB0AHEjMqEv3i-37" value="GE3" style="edgeLabel;resizable=0;html=1;align=left;verticalAlign=bottom;" connectable="0" vertex="1" parent="F0cyMqDmB0AHEjMqEv3i-35">
          <mxGeometry x="-1" relative="1" as="geometry" />
        </mxCell>
        <mxCell id="F0cyMqDmB0AHEjMqEv3i-38" value="Port1" style="edgeLabel;resizable=0;html=1;align=right;verticalAlign=bottom;" connectable="0" vertex="1" parent="F0cyMqDmB0AHEjMqEv3i-35">
          <mxGeometry x="1" relative="1" as="geometry">
            <mxPoint x="-1" as="offset" />
          </mxGeometry>
        </mxCell>
        <mxCell id="F0cyMqDmB0AHEjMqEv3i-41" value="" style="group" vertex="1" connectable="0" parent="1">
          <mxGeometry x="550" y="240" width="170" height="50" as="geometry" />
        </mxCell>
        <mxCell id="F0cyMqDmB0AHEjMqEv3i-40" value="HPE DL360p gen8&lt;br&gt;nfr-prox1" style="rounded=1;whiteSpace=wrap;html=1;" vertex="1" parent="F0cyMqDmB0AHEjMqEv3i-41">
          <mxGeometry width="170" height="50" as="geometry" />
        </mxCell>
        <mxCell id="F0cyMqDmB0AHEjMqEv3i-39" value="" style="sketch=0;outlineConnect=0;fontColor=#232F3E;gradientColor=none;fillColor=#232F3D;strokeColor=none;dashed=0;verticalLabelPosition=bottom;verticalAlign=top;align=center;html=1;fontSize=12;fontStyle=0;aspect=fixed;pointerEvents=1;shape=mxgraph.aws4.traditional_server;" vertex="1" parent="F0cyMqDmB0AHEjMqEv3i-41">
          <mxGeometry x="10" y="13.333333333333332" width="10.766666666666666" height="18.666666666666664" as="geometry" />
        </mxCell>
        <mxCell id="F0cyMqDmB0AHEjMqEv3i-42" value="" style="group" vertex="1" connectable="0" parent="1">
          <mxGeometry x="550" y="300" width="170" height="50" as="geometry" />
        </mxCell>
        <mxCell id="F0cyMqDmB0AHEjMqEv3i-43" value="HPE DL360 gen9&lt;br&gt;nfr-prox2" style="rounded=1;whiteSpace=wrap;html=1;" vertex="1" parent="F0cyMqDmB0AHEjMqEv3i-42">
          <mxGeometry width="170" height="50" as="geometry" />
        </mxCell>
        <mxCell id="F0cyMqDmB0AHEjMqEv3i-44" value="" style="sketch=0;outlineConnect=0;fontColor=#232F3E;gradientColor=none;fillColor=#232F3D;strokeColor=none;dashed=0;verticalLabelPosition=bottom;verticalAlign=top;align=center;html=1;fontSize=12;fontStyle=0;aspect=fixed;pointerEvents=1;shape=mxgraph.aws4.traditional_server;" vertex="1" parent="F0cyMqDmB0AHEjMqEv3i-42">
          <mxGeometry x="10" y="13.333333333333332" width="10.766666666666666" height="18.666666666666664" as="geometry" />
        </mxCell>
        <mxCell id="F0cyMqDmB0AHEjMqEv3i-45" value="" style="group" vertex="1" connectable="0" parent="1">
          <mxGeometry x="550" y="360" width="170" height="50" as="geometry" />
        </mxCell>
        <mxCell id="F0cyMqDmB0AHEjMqEv3i-46" value="HPE DL360 gen9&lt;br&gt;nfr-prox3" style="rounded=1;whiteSpace=wrap;html=1;" vertex="1" parent="F0cyMqDmB0AHEjMqEv3i-45">
          <mxGeometry width="170" height="50" as="geometry" />
        </mxCell>
        <mxCell id="F0cyMqDmB0AHEjMqEv3i-47" value="" style="sketch=0;outlineConnect=0;fontColor=#232F3E;gradientColor=none;fillColor=#232F3D;strokeColor=none;dashed=0;verticalLabelPosition=bottom;verticalAlign=top;align=center;html=1;fontSize=12;fontStyle=0;aspect=fixed;pointerEvents=1;shape=mxgraph.aws4.traditional_server;" vertex="1" parent="F0cyMqDmB0AHEjMqEv3i-45">
          <mxGeometry x="10" y="13.333333333333332" width="10.766666666666666" height="18.666666666666664" as="geometry" />
        </mxCell>
        <mxCell id="F0cyMqDmB0AHEjMqEv3i-48" value="" style="group" vertex="1" connectable="0" parent="1">
          <mxGeometry x="550" y="420" width="170" height="50" as="geometry" />
        </mxCell>
        <mxCell id="F0cyMqDmB0AHEjMqEv3i-49" value="HPE DL360p gen8&lt;br&gt;nfr-prox4" style="rounded=1;whiteSpace=wrap;html=1;" vertex="1" parent="F0cyMqDmB0AHEjMqEv3i-48">
          <mxGeometry width="170" height="50" as="geometry" />
        </mxCell>
        <mxCell id="F0cyMqDmB0AHEjMqEv3i-50" value="" style="sketch=0;outlineConnect=0;fontColor=#232F3E;gradientColor=none;fillColor=#232F3D;strokeColor=none;dashed=0;verticalLabelPosition=bottom;verticalAlign=top;align=center;html=1;fontSize=12;fontStyle=0;aspect=fixed;pointerEvents=1;shape=mxgraph.aws4.traditional_server;" vertex="1" parent="F0cyMqDmB0AHEjMqEv3i-48">
          <mxGeometry x="10" y="13.333333333333332" width="10.766666666666666" height="18.666666666666664" as="geometry" />
        </mxCell>
        <mxCell id="F0cyMqDmB0AHEjMqEv3i-75" value="" style="endArrow=none;html=1;rounded=1;strokeWidth=3;endFill=0;entryX=1;entryY=0.5;entryDx=0;entryDy=0;" edge="1" parent="1" target="F0cyMqDmB0AHEjMqEv3i-43">
          <mxGeometry relative="1" as="geometry">
            <mxPoint x="720" y="120" as="sourcePoint" />
            <mxPoint x="730" y="270" as="targetPoint" />
            <Array as="points">
              <mxPoint x="760" y="120" />
              <mxPoint x="760" y="325" />
            </Array>
          </mxGeometry>
        </mxCell>
        <mxCell id="F0cyMqDmB0AHEjMqEv3i-51" value="" style="group" vertex="1" connectable="0" parent="1">
          <mxGeometry x="550" y="490" width="170" height="50" as="geometry" />
        </mxCell>
        <mxCell id="F0cyMqDmB0AHEjMqEv3i-52" value="HPE DL380 gen9&lt;br&gt;nfr-nas" style="rounded=1;whiteSpace=wrap;html=1;" vertex="1" parent="F0cyMqDmB0AHEjMqEv3i-51">
          <mxGeometry y="-10" width="170" height="50" as="geometry" />
        </mxCell>
        <mxCell id="F0cyMqDmB0AHEjMqEv3i-53" value="" style="sketch=0;outlineConnect=0;fontColor=#232F3E;gradientColor=none;fillColor=#232F3D;strokeColor=none;dashed=0;verticalLabelPosition=bottom;verticalAlign=top;align=center;html=1;fontSize=12;fontStyle=0;aspect=fixed;pointerEvents=1;shape=mxgraph.aws4.traditional_server;" vertex="1" parent="F0cyMqDmB0AHEjMqEv3i-51">
          <mxGeometry x="10" y="13.333333333333332" width="10.766666666666666" height="18.666666666666664" as="geometry" />
        </mxCell>
        <mxCell id="F0cyMqDmB0AHEjMqEv3i-78" value="" style="endArrow=none;html=1;rounded=1;strokeWidth=3;endFill=0;entryX=1;entryY=0.5;entryDx=0;entryDy=0;" edge="1" parent="1" target="F0cyMqDmB0AHEjMqEv3i-46">
          <mxGeometry relative="1" as="geometry">
            <mxPoint x="720" y="120" as="sourcePoint" />
            <mxPoint x="730" y="335" as="targetPoint" />
            <Array as="points">
              <mxPoint x="760" y="120" />
              <mxPoint x="760" y="385" />
            </Array>
          </mxGeometry>
        </mxCell>
        <mxCell id="F0cyMqDmB0AHEjMqEv3i-79" value="" style="endArrow=none;html=1;rounded=1;strokeWidth=3;endFill=0;entryX=1;entryY=0.5;entryDx=0;entryDy=0;" edge="1" parent="1" target="F0cyMqDmB0AHEjMqEv3i-49">
          <mxGeometry relative="1" as="geometry">
            <mxPoint x="720" y="120" as="sourcePoint" />
            <mxPoint x="730" y="395" as="targetPoint" />
            <Array as="points">
              <mxPoint x="760" y="120" />
              <mxPoint x="760" y="445" />
            </Array>
          </mxGeometry>
        </mxCell>
        <mxCell id="F0cyMqDmB0AHEjMqEv3i-80" value="" style="endArrow=none;html=1;rounded=1;strokeWidth=3;endFill=0;entryX=1;entryY=0.5;entryDx=0;entryDy=0;" edge="1" parent="1" target="F0cyMqDmB0AHEjMqEv3i-52">
          <mxGeometry relative="1" as="geometry">
            <mxPoint x="720" y="120" as="sourcePoint" />
            <mxPoint x="730" y="455" as="targetPoint" />
            <Array as="points">
              <mxPoint x="760" y="120" />
              <mxPoint x="760" y="505" />
            </Array>
          </mxGeometry>
        </mxCell>
        <mxCell id="F0cyMqDmB0AHEjMqEv3i-72" value="" style="endArrow=none;html=1;rounded=1;strokeWidth=3;endFill=0;" edge="1" parent="1">
          <mxGeometry relative="1" as="geometry">
            <mxPoint x="720" y="120" as="sourcePoint" />
            <mxPoint x="720" y="260" as="targetPoint" />
            <Array as="points">
              <mxPoint x="760" y="120" />
              <mxPoint x="760" y="260" />
            </Array>
          </mxGeometry>
        </mxCell>
        <mxCell id="F0cyMqDmB0AHEjMqEv3i-74" value="Port2-6" style="edgeLabel;resizable=0;html=1;align=left;verticalAlign=bottom;" connectable="0" vertex="1" parent="F0cyMqDmB0AHEjMqEv3i-72">
          <mxGeometry x="-1" relative="1" as="geometry" />
        </mxCell>
        <mxCell id="F0cyMqDmB0AHEjMqEv3i-81" value="10G" style="edgeLabel;resizable=0;html=1;align=center;verticalAlign=middle;labelBorderColor=none;labelBackgroundColor=default;" connectable="0" vertex="1" parent="F0cyMqDmB0AHEjMqEv3i-72">
          <mxGeometry relative="1" as="geometry">
            <mxPoint as="offset" />
          </mxGeometry>
        </mxCell>
        <mxCell id="F0cyMqDmB0AHEjMqEv3i-83" value="x530-28gtx" style="rounded=1;whiteSpace=wrap;html=1;labelBackgroundColor=default;labelBorderColor=none;" vertex="1" parent="1">
          <mxGeometry x="250" y="260" width="250" height="50" as="geometry" />
        </mxCell>
        <mxCell id="F0cyMqDmB0AHEjMqEv3i-84" value="" style="endArrow=none;html=1;rounded=1;strokeWidth=3;exitX=0.915;exitY=0.013;exitDx=0;exitDy=0;entryX=0.351;entryY=1.016;entryDx=0;entryDy=0;endFill=0;entryPerimeter=0;exitPerimeter=0;" edge="1" parent="1" source="F0cyMqDmB0AHEjMqEv3i-83" target="F0cyMqDmB0AHEjMqEv3i-34">
          <mxGeometry relative="1" as="geometry">
            <mxPoint x="430" y="190" as="sourcePoint" />
            <mxPoint x="560" y="190" as="targetPoint" />
            <Array as="points">
              <mxPoint x="479" y="190" />
              <mxPoint x="603" y="190" />
            </Array>
          </mxGeometry>
        </mxCell>
        <mxCell id="F0cyMqDmB0AHEjMqEv3i-85" value="10G" style="edgeLabel;resizable=0;html=1;align=center;verticalAlign=middle;" connectable="0" vertex="1" parent="F0cyMqDmB0AHEjMqEv3i-84">
          <mxGeometry relative="1" as="geometry" />
        </mxCell>
        <mxCell id="F0cyMqDmB0AHEjMqEv3i-86" value="Port 1.0.25" style="edgeLabel;resizable=0;html=1;align=left;verticalAlign=bottom;spacing=4;" connectable="0" vertex="1" parent="F0cyMqDmB0AHEjMqEv3i-84">
          <mxGeometry x="-1" relative="1" as="geometry">
            <mxPoint y="-11" as="offset" />
          </mxGeometry>
        </mxCell>
        <mxCell id="F0cyMqDmB0AHEjMqEv3i-87" value="Port7" style="edgeLabel;resizable=0;html=1;align=right;verticalAlign=bottom;spacing=-2;" connectable="0" vertex="1" parent="F0cyMqDmB0AHEjMqEv3i-84">
          <mxGeometry x="1" relative="1" as="geometry">
            <mxPoint x="27" y="14" as="offset" />
          </mxGeometry>
        </mxCell>
        <mxCell id="F0cyMqDmB0AHEjMqEv3i-89" value="" style="endArrow=none;html=1;rounded=1;strokeWidth=3;exitX=0.5;exitY=1;exitDx=0;exitDy=0;entryX=0;entryY=0.5;entryDx=0;entryDy=0;endFill=0;fillColor=#ffe6cc;strokeColor=#d79b00;" edge="1" parent="1" source="F0cyMqDmB0AHEjMqEv3i-83" target="F0cyMqDmB0AHEjMqEv3i-40">
          <mxGeometry relative="1" as="geometry">
            <mxPoint x="400" y="420" as="sourcePoint" />
            <mxPoint x="524.43" y="315.31000000000006" as="targetPoint" />
            <Array as="points">
              <mxPoint x="375" y="330" />
              <mxPoint x="520" y="330" />
              <mxPoint x="520" y="265" />
            </Array>
          </mxGeometry>
        </mxCell>
        <mxCell id="F0cyMqDmB0AHEjMqEv3i-90" value="1G" style="edgeLabel;resizable=0;html=1;align=center;verticalAlign=middle;" connectable="0" vertex="1" parent="F0cyMqDmB0AHEjMqEv3i-89">
          <mxGeometry relative="1" as="geometry" />
        </mxCell>
        <mxCell id="F0cyMqDmB0AHEjMqEv3i-91" value="Port 1.0.1-5" style="edgeLabel;resizable=0;html=1;align=left;verticalAlign=bottom;spacing=4;" connectable="0" vertex="1" parent="F0cyMqDmB0AHEjMqEv3i-89">
          <mxGeometry x="-1" relative="1" as="geometry">
            <mxPoint x="-55" y="20" as="offset" />
          </mxGeometry>
        </mxCell>
      </root>
    </mxGraphModel>
  </diagram>
</mxfile>
